<svg xmlns="http://www.w3.org/2000/svg" viewBox="0 0 193.043 32.6399" width="145.75" height="25" id="svg45"><style id="style2">.st0{fill:#111}.st2{fill:#3a67e8}</style><g id="g43" transform="translate(-170.457 2.3820008)" style="display:inline"/><g aria-label="návody" style="font-style:normal;font-variant:normal;font-weight:400;font-stretch:normal;font-size:29.8666687px;line-height:1.25;font-family:'Footlight MT Light';-inkscape-font-specification:'Footlight MT Light, ';letter-spacing:-1.02999997px;word-spacing:0;display:inline;fill:#fff;fill-opacity:1;stroke:none" id="text4540"><path d="M-.00000112 10.560001H3.8399989l.32 2.016h.128q1.024-.96 2.24-1.664 1.216-.736 2.848-.736 2.5920001 0 3.7440001 1.696 1.184 1.696 1.184 4.704v9.856H9.5999989v-9.248q0-1.728-.48-2.368-.448-.64-1.472-.64-.896 0-1.536.416-.64.384-1.408 1.12v10.72H-.00000112z" style="font-style:normal;font-variant:normal;font-weight:700;font-stretch:normal;font-size:32px;font-family:'Source Sans Pro';-inkscape-font-specification:'Source Sans Pro Bold';letter-spacing:-1.02999997px;fill:#fff" id="path829"/><path d="M21.282498 26.816001q-1.088 0-1.984-.384-.864-.352-1.472-.992-.608-.672-.96-1.536-.32-.864-.32-1.888 0-2.496 2.112-3.904t6.816-1.888q-.064-1.056-.64-1.664-.544-.64-1.856-.64-1.024 0-2.048.384-.992.384-2.144 1.056l-1.696-3.104q1.536-.928 3.2-1.504 1.696-.576 3.584-.576 3.072 0 4.672 1.76 1.632 1.728 1.632 5.408v9.088h-3.84l-.32-1.632h-.128q-1.024.896-2.144 1.472-1.12.544-2.464.544zm1.6-3.648q.8 0 1.376-.352.576-.352 1.216-.992v-2.784q-2.496.352-3.456 1.024t-.96 1.6q0 .768.48 1.152.512.352 1.344.352zm-.864-17.3439999l4.928-5.82399999 3.168 3.10399999-5.792 5.024z" style="font-style:normal;font-variant:normal;font-weight:700;font-stretch:normal;font-size:32px;font-family:'Source Sans Pro';-inkscape-font-specification:'Source Sans Pro Bold';letter-spacing:-1.02999997px;fill:#fff" id="path831"/><path d="M31.431498 10.560001h4.736l2.048 7.488q.32 1.184.608 2.432.32 1.216.64 2.464h.128q.288-1.248.576-2.464.32-1.248.64-2.432l2.08-7.488h4.512l-5.184 15.872h-5.44z" style="font-style:normal;font-variant:normal;font-weight:700;font-stretch:normal;font-size:32px;font-family:'Source Sans Pro';-inkscape-font-specification:'Source Sans Pro Bold';letter-spacing:-1.02999997px;fill:#fff" id="path833"/><path d="M55.413499 26.816001q-1.504 0-2.912-.544-1.408-.576-2.496-1.632-1.056-1.056-1.696-2.592-.64-1.568-.64-3.552t.64-3.52q.64-1.568 1.696-2.624 1.088-1.056 2.496-1.6 1.408-.576 2.912-.576t2.88.576q1.408.544 2.464 1.6 1.088 1.056 1.728 2.624.64 1.536.64 3.52t-.64 3.552q-.64 1.536-1.728 2.592-1.056 1.056-2.464 1.632-1.376.544-2.88.544zm0-3.808q1.44 0 2.176-1.216.736-1.216.736-3.296t-.736-3.296q-.736-1.216-2.176-1.216-1.472 0-2.208 1.216-.704 1.216-.704 3.296t.704 3.296q.736 1.216 2.208 1.216z" style="font-style:normal;font-variant:normal;font-weight:700;font-stretch:normal;font-size:32px;font-family:'Source Sans Pro';-inkscape-font-specification:'Source Sans Pro Bold';letter-spacing:-1.02999997px;fill:#fff" id="path835"/><path d="M70.981496 26.816001q-1.472 0-2.688-.576-1.184-.576-2.048-1.632-.832-1.088-1.312-2.624-.448-1.536-.448-3.488t.544-3.488q.576-1.536 1.472-2.592.928-1.088 2.112-1.664 1.216-.576 2.464-.576 1.344 0 2.208.448.864.448 1.696 1.216l-.192-2.4319999v-5.408h4.704V26.432001h-3.84l-.32-1.568h-.128q-.832.832-1.952 1.408-1.12.544-2.272.544zm1.216-3.84q.768 0 1.376-.32.64-.32 1.216-1.12v-6.496q-.64-.576-1.312-.8-.672-.224-1.312-.224-1.12 0-1.984 1.088-.864 1.056-.864 3.328 0 2.368.736 3.456.768 1.088 2.144 1.088z" style="font-style:normal;font-variant:normal;font-weight:700;font-stretch:normal;font-size:32px;font-family:'Source Sans Pro';-inkscape-font-specification:'Source Sans Pro Bold';letter-spacing:-1.02999997px;fill:#fff" id="path837"/><path d="M84.359997 32.640001q-.736 0-1.248-.096-.512-.064-.992-.224l.832-3.584q.224.064.512.128.288.064.544.064 1.184 0 1.824-.576.64-.576.96-1.504l.224-.832-6.112-15.456h4.736l2.272 6.816q.352 1.088.64 2.208.288 1.12.608 2.304h.128l.512-2.24q.288-1.152.576-2.272l1.92-6.816h4.512l-5.504 16.032q-.576 1.504-1.216 2.624-.608 1.152-1.44 1.888-.8.768-1.856 1.152-1.024.384-2.432.384z" style="font-style:normal;font-variant:normal;font-weight:700;font-stretch:normal;font-size:32px;font-family:'Source Sans Pro';-inkscape-font-specification:'Source Sans Pro Bold';letter-spacing:-1.02999997px;fill:#fff" id="path839"/></g><path id="svg_2" d="M104.443 23.382002v-9.9h3v-3h9V4.4820018h3.9V26.382002h-12.9v-3zm3.9-.9h8.1v-8.1h-8.1z" class="st0" style="display:inline;fill:#fff"/><path id="svg_3" d="M127.943 10.482002v15.9h-3.9v-15.9z" class="st0" style="display:inline;fill:#fff"/><path id="svg_4" d="M143.543 28.482002v-2.1h-9v-3h-3v-9.9h3v-3h12.9v21.9h-13v-3.9zm-8.2-6h8.1v-8.1h-8.1z" class="st0" style="display:inline;fill:#fff"/><path id="svg_5" d="M154.943 10.482002v15.9h-3.9v-15.9z" class="st0" style="display:inline;fill:#fff"/><path id="svg_6" d="M161.543 26.382002v-12h-3v-3.9h3V4.4820018h3.9v6.0000002h3v3.9h-3v12z" class="st0" style="display:inline;fill:#fff"/><path id="svg_7" d="M172.643 26.382002v-3h-3v-3.9h3v-3h9v-2.1h-9.3v-3.9h10.2v3h3v9.9h-3v3zm.9-3.9h8.1v-2.1h-8.1z" class="st0" style="display:inline;fill:#fff"/><path id="svg_8" d="M193.043 4.4820018V26.382002h-3.9V4.4820018z" class="st0" style="display:inline;fill:#fff"/><path id="svg_19" class="st2" style="display:inline;fill:#fff" d="M97.842987 22.482002h3.9000001v3.9000001H97.842987z"/><path id="svg_20" class="st2" style="display:inline;fill:#fff" d="M124.043 4.2820015h3.9000001v3.9000001H124.043z"/><path id="svg_21" class="st2" style="display:inline;fill:#fff" d="M150.84299 4.2820015h3.9000001v3.9000001H150.84299z"/></svg>