<svg xmlns="http://www.w3.org/2000/svg" viewBox="0 0 32 32">
  <path fill="#000000" d="M0 0h32v32H0z"/>
  <path fill="#ffffff" d="M7.28 11.44c.77.32 1.64-.05 1.95-.8.31-.76-.05-1.64-.81-1.95-.75-.31-1.63.06-1.94.82-.31.76.05 1.63.8 1.94M3.9 13.42c.77.32 1.64-.05 1.95-.8.31-.76-.05-1.64-.81-1.95-.75-.31-1.63.06-1.94.82-.31.76.05 1.63.8 1.94M2.91 17.18c.77.32 1.64-.05 1.95-.8.31-.76-.05-1.64-.81-1.95-.75-.31-1.63.06-1.94.82-.31.76.05 1.63.8 1.94M11.05 12.63c.77.32 1.64-.05 1.95-.8.31-.76-.05-1.64-.81-1.95-.75-.31-1.63.06-1.94.82-.31.76.05 1.63.8 1.94M24.72 11.44a1.49 1.49 0 0 1-1.95-.8c-.31-.76.05-1.64.81-1.95.75-.31 1.63.06 1.94.82.31.76-.05 1.63-.8 1.94M28.1 13.42a1.49 1.49 0 0 1-1.95-.8c-.31-.76.05-1.64.81-1.95.75-.31 1.63.06 1.94.82.31.76-.05 1.63-.8 1.94M29.09 17.18a1.49 1.49 0 0 1-1.95-.8c-.31-.76.05-1.64.81-1.95.75-.31 1.63.06 1.94.82.31.76-.05 1.63-.8 1.94M20.95 12.63a1.49 1.49 0 0 1-1.95-.8c-.31-.76.05-1.64.81-1.95.75-.31 1.63.06 1.94.82.31.76-.05 1.63-.8 1.94M16.79 8.78l1.89.99V6.99l-1.88.6a.656.656 0 0 0-.18-.19s.76-2.39.76-2.39h-2.72l.76 2.39c-.07.06-.13.12-.18.19S13.36 7 13.36 7v2.78l1.89-.99c.06.08.12.14.2.2l-1.08 3.27v.01c-.05.16-.08.34-.08.52 0 .88.65 1.61 1.5 1.74h.04c.07 0 .15.02.22.02s.15 0 .22-.02h.04c.85-.13 1.5-.86 1.5-1.74 0-.18-.03-.35-.08-.52v-.01l-1.08-3.27c.07-.06.14-.12.2-.19M16 24.77c3.58 0 6.97.24 9.99.67.86-3.61 1.9-5.67 2.98-7.14l-2.03-.72c.2 1.03.23 1.51 0 2.17-.33-.33-.65-.93-.9-1.85l-.98 3.27c.6-.41 1.06-.68 1.59-.69-.94 2.02-2.1 2.53-2.86 2.39-.92-.17-1.35-.99-1.21-1.69.21-.99 1.23-1.25 1.71-.1.91-1.85-.63-2.43-1.62-1.88 1.52-1.52 1.7-2.87.47-4.51-1.71 1.31-1.73 2.61-.96 4.43-1-1.15-2.56-.53-2 1.32.72-1.12 1.68-.41 1.53.65-.13.92-1.35 1.67-2.87 1.54-2.18-.2-2.31-1.7-2.36-2.95.54-.1 1.5.4 2.32 1.55l.3-3.47c-.89.93-1.71 1.11-2.61 1.14.3-.94 1.68-2.47 1.68-2.47h-4.33s1.38 1.54 1.68 2.47c-.9-.03-1.72-.21-2.61-1.14l.3 3.47c.82-1.15 1.79-1.65 2.32-1.55-.05 1.24-.18 2.75-2.36 2.95-1.52.13-2.74-.61-2.87-1.54-.15-1.06.81-1.76 1.53-.65.56-1.85-1-2.47-2-1.32.77-1.83.75-3.12-.96-4.43-1.23 1.63-1.06 2.99.47 4.51-.99-.55-2.53.03-1.62 1.88.47-1.15 1.49-.89 1.71.1.14.7-.28 1.52-1.21 1.69-.76.14-1.93-.38-2.86-2.39.53.01.99.28 1.59.69l-.98-3.27c-.25.92-.56 1.52-.9 1.85-.23-.66-.19-1.14 0-2.17l-2.03.72c1.08 1.47 2.12 3.54 2.98 7.14 3.02-.43 6.41-.67 9.99-.67"/>
</svg>