<svg xmlns="http://www.w3.org/2000/svg" viewBox="0 0 17.77 21.96"><defs><style>.a{fill:#1d1e21;}.b{fill:#fff;}</style></defs><title>icon-youtube</title><path class="a" d="M11.53,10.08s7.17,0,8,.86S20.42,16,20.42,16s0,4.22-.86,5.08-8,.87-8,0.87-7.17,0-8-.87S2.65,16,2.65,16s0-4.23.86-5.08S11.53,10.08,11.53,10.08Zm5.65-2.21H16V7.23a2.44,2.44,0,0,1-.67.54,1.44,1.44,0,0,1-.68.19,0.73,0.73,0,0,1-.61-0.26,1.24,1.24,0,0,1-.2-0.78V2.06H15V6.51a0.48,0.48,0,0,0,.08.3,0.28,0.28,0,0,0,.24.09,0.67,0.67,0,0,0,.33-0.12A1.53,1.53,0,0,0,16,6.47V2.06h1.17V7.87h0Zm-6.34-1a0.47,0.47,0,0,0,.36.13,0.53,0.53,0,0,0,.38-0.13,0.49,0.49,0,0,0,.14-0.37V3.35A0.38,0.38,0,0,0,11.58,3a0.57,0.57,0,0,0-.37-0.12,0.51,0.51,0,0,0-.35.12,0.39,0.39,0,0,0-.13.31V6.51A0.52,0.52,0,0,0,10.85,6.88ZM10,2.32a1.89,1.89,0,0,1,1.27-.4,1.7,1.7,0,0,1,1.19.42,1.41,1.41,0,0,1,.46,1.09v3a1.53,1.53,0,0,1-.45,1.17A1.76,1.76,0,0,1,11.21,8,1.71,1.71,0,0,1,10,7.58,1.56,1.56,0,0,1,9.52,6.4v-3A1.33,1.33,0,0,1,10,2.32ZM6.35,0H5L6.59,4.75V7.87H7.9V4.6L9.43,0H8.09L7.28,3.15H7.2Z" transform="translate(-2.65)"/><path class="b" d="M12.14,12.38v7.14h1v-0.4a1.33,1.33,0,0,0,.44.36,1.22,1.22,0,0,0,.54.11,0.85,0.85,0,0,0,.7-0.3,1.33,1.33,0,0,0,.24-0.86V15.51a1.59,1.59,0,0,0-.26-1,0.89,0.89,0,0,0-.75-0.34,1,1,0,0,0-.48.13,1.59,1.59,0,0,0-.44.37v-2.3h-1Zm1,2.86a0.77,0.77,0,0,1,.21-0.16A0.49,0.49,0,0,1,13.62,15a0.4,0.4,0,0,1,.32.14,0.64,0.64,0,0,1,.11.4v2.72a0.58,0.58,0,0,1-.09.36,0.33,0.33,0,0,1-.28.11,0.58,0.58,0,0,1-.25-0.06,0.89,0.89,0,0,1-.25-0.19V15.24Z" transform="translate(-2.65)"/><path class="b" d="M10.32,18.25a1.47,1.47,0,0,1-.32.28,0.58,0.58,0,0,1-.29.11,0.26,0.26,0,0,1-.21-0.08,0.46,0.46,0,0,1-.06-0.27v-4h-1v4.41a1.16,1.16,0,0,0,.18.71,0.64,0.64,0,0,0,.54.24,1.25,1.25,0,0,0,.6-0.17,2.21,2.21,0,0,0,.6-0.49v0.58h1V14.25h-1v4Z" transform="translate(-2.65)"/><polygon class="b" points="4.08 19.52 4.08 13.42 5.29 13.42 5.29 12.38 1.71 12.38 1.71 13.42 2.92 13.42 2.92 19.52 4.08 19.52"/><path class="b" d="M17.23,14.12a1.55,1.55,0,0,0-1.13.43,1.5,1.5,0,0,0-.44,1.12V18a1.7,1.7,0,0,0,.4,1.2,1.41,1.41,0,0,0,1.1.43,1.53,1.53,0,0,0,1.16-.41A1.71,1.71,0,0,0,18.71,18V17.76H17.64V18a1.14,1.14,0,0,1-.1.6,0.42,0.42,0,0,1-.36.14,0.39,0.39,0,0,1-.35-0.16,1.18,1.18,0,0,1-.1-0.58V17h2V15.67a1.6,1.6,0,0,0-.38-1.15A1.44,1.44,0,0,0,17.23,14.12Zm0.41,2.07H16.73V15.66a0.79,0.79,0,0,1,.11-0.47A0.41,0.41,0,0,1,17.19,15a0.39,0.39,0,0,1,.34.14,0.78,0.78,0,0,1,.11.47v0.53Z" transform="translate(-2.65)"/></svg>