<svg xmlns="http://www.w3.org/2000/svg" viewBox="0 0 22.01 18.66"><defs><style>.a{fill:none;}.b{fill:#010101;}.c{fill:#1d1e21;}.d{fill:#fff;}</style></defs><title>icon-github</title><path class="a" d="M16.24,10.71a12.37,12.37,0,0,0-2.7,0c-1.21.1-2,.14-2.49,0.14-0.61,0-1.26,0-2.07-.09s-1.46-.1-1.92-0.12a5.86,5.86,0,0,0-1.51.17,3,3,0,0,0-1.34.67A3.7,3.7,0,0,0,3,14.35q0,3,2,3.92a14.44,14.44,0,0,0,6,1H11a14.69,14.69,0,0,0,6-1c1.34-.64,2-1.95,2-3.92a3.69,3.69,0,0,0-1.29-2.87A2.9,2.9,0,0,0,16.24,10.71ZM8.3,16.22a1.3,1.3,0,0,1-1.08.62,1.36,1.36,0,0,1-1.13-.62,2.77,2.77,0,0,1,0-3.06,1.36,1.36,0,0,1,1.13-.62,1.31,1.31,0,0,1,1.08.62A2.77,2.77,0,0,1,8.3,16.22Zm7.61,0a1.3,1.3,0,0,1-1.08.62,1.36,1.36,0,0,1-1.12-.62,2.77,2.77,0,0,1,0-3.06,1.36,1.36,0,0,1,1.12-.62,1.31,1.31,0,0,1,1.08.62A2.77,2.77,0,0,1,15.91,16.22Z" transform="translate(0.01 -1.67)"/><path class="b" d="M14.83,12.53a1.36,1.36,0,0,0-1.12.62,2.77,2.77,0,0,0,0,3.06,1.36,1.36,0,0,0,1.12.62,1.3,1.3,0,0,0,1.08-.62,2.77,2.77,0,0,0,0-3.06A1.31,1.31,0,0,0,14.83,12.53Z" transform="translate(0.01 -1.67)"/><path class="c" d="M20.24,6.93a3.86,3.86,0,0,0,0-1.91,11,11,0,0,0-.78-3.35l-0.62.14a9.29,9.29,0,0,0-2,.72A19.93,19.93,0,0,0,14,4.16a11.9,11.9,0,0,0-3-.29,12.64,12.64,0,0,0-3,.29A12.8,12.8,0,0,0,2.53,1.67,11.12,11.12,0,0,0,1.75,5a3.86,3.86,0,0,0,0,1.91A6.62,6.62,0,0,0,0,11.58,11.48,11.48,0,0,0,.4,14.76a7.92,7.92,0,0,0,1,2.29A6.69,6.69,0,0,0,3,18.61a7.68,7.68,0,0,0,1.67,1,8.3,8.3,0,0,0,1.75.48,14.1,14.1,0,0,0,1.48.19l1.08,0,0.86,0c0.47,0,.88,0,1.2,0s0.72,0,1.2,0l0.86,0,1.08,0a14.15,14.15,0,0,0,1.48-.19,8.6,8.6,0,0,0,1.75-.48,7.77,7.77,0,0,0,1.67-1,6.71,6.71,0,0,0,1.53-1.56,8,8,0,0,0,1-2.29A11.48,11.48,0,0,0,22,11.58,6.62,6.62,0,0,0,20.24,6.93Z" transform="translate(0.01 -1.67)"/><path class="b" d="M7.22,12.53a1.36,1.36,0,0,0-1.13.62,2.77,2.77,0,0,0,0,3.06,1.36,1.36,0,0,0,1.13.62,1.3,1.3,0,0,0,1.08-.62,2.77,2.77,0,0,0,0-3.06A1.31,1.31,0,0,0,7.22,12.53Z" transform="translate(0.01 -1.67)"/><path class="d" d="M5,18.28a14.44,14.44,0,0,0,6,1H11a14.69,14.69,0,0,0,6-1c1.34-.64,2-1.95,2-3.92a3.69,3.69,0,0,0-1.29-2.87,2.9,2.9,0,0,0-1.56-.76,12.37,12.37,0,0,0-2.7,0c-1.21.1-2,.14-2.49,0.14-0.61,0-1.26,0-2.07-.09s-1.46-.1-1.92-0.12a5.86,5.86,0,0,0-1.51.17,3,3,0,0,0-1.34.67A3.7,3.7,0,0,0,3,14.35Q3,17.32,5,18.28Zm8.73-5.12a1.36,1.36,0,0,1,1.12-.62,1.31,1.31,0,0,1,1.08.62,2.77,2.77,0,0,1,0,3.06,1.3,1.3,0,0,1-1.08.62,1.36,1.36,0,0,1-1.12-.62A2.77,2.77,0,0,1,13.7,13.15Zm-7.61,0a1.36,1.36,0,0,1,1.13-.62,1.31,1.31,0,0,1,1.08.62,2.77,2.77,0,0,1,0,3.06,1.3,1.3,0,0,1-1.08.62,1.36,1.36,0,0,1-1.13-.62A2.77,2.77,0,0,1,6.09,13.15Z" transform="translate(0.01 -1.67)"/></svg>