<svg xmlns="http://www.w3.org/2000/svg" viewBox="0 0 32 32"><path fill="#1D70B8" d="M0 0h32v32H0z"/><path fill="#fff" d="m16.88 7.87 2.11 1.1V5.86l-2.11.67c-.06-.08-.13-.15-.2-.21s.85-2.68.85-2.68h-3.04l.85 2.67c-.08.07-.15.14-.2.21s-2.11-.66-2.11-.66v3.11l2.11-1.11c.06.09.14.16.22.22l-1.21 3.66v.01c0 .01 0 0 0 0-.06.18-.09.38-.09.58 0 .99.73 1.81 1.68 1.95h.04c.08.01.16.02.25.02.08 0 .17 0 .25-.02h.04c.95-.14 1.68-.96 1.68-1.95 0-.2-.03-.39-.09-.58s0 0 0-.01L16.7 8.08c.08-.06.16-.13.22-.22M9.16 12.3a1.75 1.75 0 1 0 1.52-3.15c-.86-.41-1.91-.04-2.33.83s-.05 1.91.81 2.32M4.82 15.87c.9.37 1.92-.05 2.29-.94s-.05-1.92-.95-2.29c-.88-.36-1.91.07-2.28.96s.06 1.91.94 2.27M22.86 12.3a1.75 1.75 0 1 1-1.52-3.15c.86-.41 1.91-.04 2.33.83s.05 1.91-.81 2.32M27.18 15.84c-.9.37-1.92-.05-2.29-.94s.05-1.92.95-2.29c.88-.36 1.91.07 2.28.96s-.06 1.91-.94 2.27M16 25.68c3.59 0 6.99.24 10.02.68.86-3.61 1.91-5.68 2.99-7.16l-2.03-.72c.2 1.03.23 1.51 0 2.18-.34-.33-.65-.93-.9-1.85l-.99 3.28c.6-.41 1.06-.68 1.59-.69-.94 2.02-2.11 2.54-2.87 2.4-.93-.17-1.35-1-1.21-1.7.21-.99 1.23-1.25 1.71-.1.91-1.86-.63-2.44-1.63-1.89 1.53-1.52 1.7-2.88.47-4.52-1.72 1.31-1.74 2.61-.97 4.44-1-1.15-2.56-.53-2 1.32.72-1.12 1.68-.42 1.53.65-.13.93-1.35 1.68-2.87 1.54-2.18-.2-2.31-1.71-2.37-2.95.54-.1 1.5.4 2.33 1.56l.3-3.48c-.9.93-1.71 1.11-2.62 1.14.3-.94 1.69-2.48 1.69-2.48h-4.34s1.38 1.54 1.69 2.48c-.91-.03-1.72-.21-2.62-1.14l.3 3.48c.82-1.16 1.79-1.66 2.33-1.56-.05 1.25-.18 2.75-2.37 2.95-1.52.13-2.75-.62-2.87-1.54-.15-1.06.81-1.77 1.53-.65.56-1.85-1-2.47-2-1.32.77-1.83.75-3.13-.97-4.44-1.23 1.64-1.06 2.99.47 4.52-.99-.55-2.54.03-1.63 1.89.48-1.16 1.5-.9 1.71.1.14.7-.28 1.53-1.21 1.7-.76.14-1.93-.38-2.87-2.4.53.01.99.28 1.59.69l-.99-3.28c-.25.92-.57 1.52-.9 1.85-.23-.66-.19-1.14 0-2.18l-2.03.72c1.08 1.47 2.13 3.54 2.99 7.16 3.03-.43 6.42-.68 10.01-.68"/></svg>
